<?xml version="1.0" encoding="UTF-8" standalone="no"?>
<!DOCTYPE svg PUBLIC "-//W3C//DTD SVG 1.1//EN"
 "http://www.w3.org/Graphics/SVG/1.1/DTD/svg11.dtd">
<!-- Generated by graphviz version 2.43.0 (0)
 -->
<!-- Title: %3 Pages: 1 -->
<svg width="643pt" height="188pt"
 viewBox="0.00 0.00 643.34 188.00" xmlns="http://www.w3.org/2000/svg" xmlns:xlink="http://www.w3.org/1999/xlink">
<g id="graph0" class="graph" transform="scale(1 1) rotate(0) translate(4 184)">
<title>%3</title>
<polygon fill="white" stroke="transparent" points="-4,4 -4,-184 639.34,-184 639.34,4 -4,4"/>
<!-- io -->
<g id="node1" class="node">
<title>io</title>
<polygon fill="lightgrey" stroke="black" points="527,-108 473,-108 473,-72 527,-72 527,-108"/>
<text text-anchor="middle" x="500" y="-86.3" font-family="Times,serif" font-size="14.00">io</text>
</g>
<!-- pipeline -->
<g id="node4" class="node">
<title>pipeline</title>
<polygon fill="lightgrey" stroke="black" points="371,-180 297,-180 297,-144 371,-144 371,-180"/>
<text text-anchor="middle" x="334" y="-158.3" font-family="Times,serif" font-size="14.00">pipeline</text>
</g>
<!-- io&#45;&gt;pipeline -->
<g id="edge8" class="edge">
<title>io&#45;&gt;pipeline</title>
<path fill="none" stroke="black" d="M472.96,-102.4C448,-112.92 410.42,-128.77 380.63,-141.34"/>
<polygon fill="black" stroke="black" points="379.11,-138.18 371.25,-145.29 381.83,-144.63 379.11,-138.18"/>
</g>
<!-- models -->
<g id="node2" class="node">
<title>models</title>
<polygon fill="lightgrey" stroke="black" points="200,-108 132,-108 132,-72 200,-72 200,-108"/>
<text text-anchor="middle" x="166" y="-86.3" font-family="Times,serif" font-size="14.00">models</text>
</g>
<!-- models&#45;&gt;pipeline -->
<g id="edge7" class="edge">
<title>models&#45;&gt;pipeline</title>
<path fill="none" stroke="black" d="M200.4,-105.33C225.47,-115.78 259.73,-130.06 287.28,-141.54"/>
<polygon fill="black" stroke="black" points="286.14,-144.85 296.72,-145.47 288.84,-138.39 286.14,-144.85"/>
</g>
<!-- geometry -->
<g id="node3" class="node">
<title>geometry</title>
<polygon fill="lightgrey" stroke="black" points="376.5,-108 291.5,-108 291.5,-72 376.5,-72 376.5,-108"/>
<text text-anchor="middle" x="334" y="-86.3" font-family="Times,serif" font-size="14.00">geometry</text>
</g>
<!-- geometry&#45;&gt;pipeline -->
<g id="edge9" class="edge">
<title>geometry&#45;&gt;pipeline</title>
<path fill="none" stroke="black" d="M334,-108.3C334,-116.02 334,-125.29 334,-133.89"/>
<polygon fill="black" stroke="black" points="330.5,-133.9 334,-143.9 337.5,-133.9 330.5,-133.9"/>
</g>
<!-- videos -->
<g id="node5" class="node">
<title>videos</title>
<ellipse fill="none" stroke="black" cx="500" cy="-18" rx="40.09" ry="18"/>
<text text-anchor="middle" x="500" y="-14.3" font-family="Times,serif" font-size="14.00">videos</text>
</g>
<!-- videos&#45;&gt;io -->
<g id="edge1" class="edge">
<title>videos&#45;&gt;io</title>
<path fill="none" stroke="black" d="M500,-36.3C500,-44.02 500,-53.29 500,-61.89"/>
<polygon fill="black" stroke="black" points="496.5,-61.9 500,-71.9 503.5,-61.9 496.5,-61.9"/>
</g>
<!-- ephys -->
<g id="node6" class="node">
<title>ephys</title>
<ellipse fill="none" stroke="black" cx="597" cy="-18" rx="38.19" ry="18"/>
<text text-anchor="middle" x="597" y="-14.3" font-family="Times,serif" font-size="14.00">ephys</text>
</g>
<!-- ephys&#45;&gt;io -->
<g id="edge2" class="edge">
<title>ephys&#45;&gt;io</title>
<path fill="none" stroke="black" d="M576.9,-33.5C564,-42.81 546.97,-55.1 532.21,-65.75"/>
<polygon fill="black" stroke="black" points="529.9,-63.11 523.83,-71.8 533.99,-68.78 529.9,-63.11"/>
</g>
<!-- glmhmm -->
<g id="node7" class="node">
<title>glmhmm</title>
<ellipse fill="none" stroke="black" cx="52" cy="-18" rx="51.99" ry="18"/>
<text text-anchor="middle" x="52" y="-14.3" font-family="Times,serif" font-size="14.00">glmhmm</text>
</g>
<!-- glmhmm&#45;&gt;models -->
<g id="edge3" class="edge">
<title>glmhmm&#45;&gt;models</title>
<path fill="none" stroke="black" d="M76.45,-34.02C91.83,-43.46 111.96,-55.82 129.23,-66.43"/>
<polygon fill="black" stroke="black" points="127.62,-69.54 137.97,-71.79 131.28,-63.58 127.62,-69.54"/>
</g>
<!-- arhmm -->
<g id="node8" class="node">
<title>arhmm</title>
<ellipse fill="none" stroke="black" cx="166" cy="-18" rx="44.39" ry="18"/>
<text text-anchor="middle" x="166" y="-14.3" font-family="Times,serif" font-size="14.00">arhmm</text>
</g>
<!-- arhmm&#45;&gt;models -->
<g id="edge4" class="edge">
<title>arhmm&#45;&gt;models</title>
<path fill="none" stroke="black" d="M166,-36.3C166,-44.02 166,-53.29 166,-61.89"/>
<polygon fill="black" stroke="black" points="162.5,-61.9 166,-71.9 169.5,-61.9 162.5,-61.9"/>
</g>
<!-- azimuth -->
<g id="node9" class="node">
<title>azimuth</title>
<ellipse fill="none" stroke="black" cx="276" cy="-18" rx="48.19" ry="18"/>
<text text-anchor="middle" x="276" y="-14.3" font-family="Times,serif" font-size="14.00">azimuth</text>
</g>
<!-- azimuth&#45;&gt;geometry -->
<g id="edge5" class="edge">
<title>azimuth&#45;&gt;geometry</title>
<path fill="none" stroke="black" d="M289.74,-35.59C296.68,-43.97 305.26,-54.32 313.01,-63.67"/>
<polygon fill="black" stroke="black" points="310.46,-66.09 319.54,-71.55 315.85,-61.62 310.46,-66.09"/>
</g>
<!-- distance -->
<g id="node10" class="node">
<title>distance</title>
<ellipse fill="none" stroke="black" cx="392" cy="-18" rx="50.09" ry="18"/>
<text text-anchor="middle" x="392" y="-14.3" font-family="Times,serif" font-size="14.00">distance</text>
</g>
<!-- distance&#45;&gt;geometry -->
<g id="edge6" class="edge">
<title>distance&#45;&gt;geometry</title>
<path fill="none" stroke="black" d="M378.25,-35.59C371.31,-43.97 362.73,-54.32 354.98,-63.67"/>
<polygon fill="black" stroke="black" points="352.14,-61.62 348.45,-71.55 357.53,-66.09 352.14,-61.62"/>
</g>
</g>
</svg>
